<svg width="48" height="48" viewBox="0 0 48 48" fill="none" xmlns="http://www.w3.org/2000/svg">
<path d="M19 38C16.8 38 15 39.8 15 42C15 44.2 16.8 46 19 46C21.2 46 23 44.2 23 42C23 39.8 21.2 38 19 38ZM19 44C17.9 44 17 43.1 17 42C17 40.9 17.9 40 19 40C20.1 40 21 40.9 21 42C21 43.1 20.1 44 19 44Z" fill="white"/>
<path d="M37 38C34.8 38 33 39.8 33 42C33 44.2 34.8 46 37 46C39.2 46 41 44.2 41 42C41 39.8 39.2 38 37 38ZM37 44C35.9 44 35 43.1 35 42C35 40.9 35.9 40 37 40C38.1 40 39 40.9 39 42C39 43.1 38.1 44 37 44Z" fill="white"/>
<path d="M43.6 9.4C42.9 8.5 41.7 8 40.5 8H12.8L12.4 5.4C12.1 3.5 10.4 2 8.4 2H2V4H8.4C9.4 4 10.3 4.7 10.4 5.7L14.6 32.8C15 34.7 16.7 36.1 18.6 36.1H40V34.1H18.6C17.6 34.1 16.8 33.4 16.6 32.4L16.2 30H38.4C40.3 30 42 28.6 42.4 26.5L44.5 12.5C44.7 11.4 44.4 10.3 43.6 9.4ZM42.5 12.3L40.4 26.3C40.2 27.4 39.4 28.1 38.4 28.1H15.9L13.1 10.1H40.5C41.1 10.1 41.7 10.4 42.1 10.8C42.5 11.1 42.6 11.7 42.5 12.3Z" fill="white"/>
</svg>
