<svg width="337" height="112" viewBox="0 0 337 112" fill="none" xmlns="http://www.w3.org/2000/svg">
<path d="M5.8 101V29H63.8C67.6667 29 70.9667 30.3667 73.7 33.1C76.4333 35.8333 77.8 39.1 77.8 42.9V87.1C77.8 90.9 76.4333 94.1667 73.7 96.9C70.9667 99.6333 67.6667 101 63.8 101H5.8ZM22.5 87.7H61C62.8 87.7 63.8333 87.6 64.1 87.4C64.3667 87.1333 64.5 86.0667 64.5 84.2V45.8C64.5 43.9333 64.3667 42.9 64.1 42.7C63.8333 42.4333 62.8 42.3 61 42.3H22.5C20.6333 42.3 19.5667 42.4333 19.3 42.7C19.1 42.9 19 43.9333 19 45.8V84.2C19 86.0667 19.1 87.1333 19.3 87.4C19.5667 87.6 20.6333 87.7 22.5 87.7ZM102.698 101C98.8984 101 95.6318 99.6333 92.8984 96.9C90.1651 94.1667 88.7984 90.9 88.7984 87.1V29H101.998V84.2C101.998 86.0667 102.098 87.1333 102.298 87.4C102.565 87.6 103.632 87.7 105.498 87.7H143.998C145.798 87.7 146.832 87.6 147.098 87.4C147.365 87.1333 147.498 86.0667 147.498 84.2V29H160.798V87.1C160.798 90.9 159.432 94.1667 156.698 96.9C153.965 99.6333 150.698 101 146.898 101H102.698ZM185.711 101C181.911 101 178.644 99.6333 175.911 96.9C173.178 94.1667 171.811 90.9 171.811 87.1V42.9C171.811 39.1 173.178 35.8333 175.911 33.1C178.644 30.3667 181.911 29 185.711 29H243.611V42.3H188.511C186.644 42.3 185.578 42.4333 185.311 42.7C185.111 42.9 185.011 43.9333 185.011 45.8V84.2C185.011 86.0667 185.111 87.1333 185.311 87.4C185.578 87.6 186.644 87.7 188.511 87.7H243.611V101H185.711ZM254.138 101V29H267.438V58.3H284.338L308.938 29H323.338V32.8L296.338 65L323.438 97.2V101H308.938L284.338 71.6H267.438V101H254.138Z" fill="white"/>
<path d="M5.8 101H4.8V102H5.8V101ZM5.8 29V28H4.8V29H5.8ZM64.1 87.4L64.7 88.2L64.7569 88.1574L64.8071 88.1071L64.1 87.4ZM64.1 42.7L63.3929 43.4071L63.4432 43.4574L63.5 43.5L64.1 42.7ZM19.3 42.7L20.0071 43.4071L20.0071 43.4071L19.3 42.7ZM19.3 87.4L18.5 88L18.5857 88.1143L18.7 88.2L19.3 87.4ZM6.8 101V29H4.8V101H6.8ZM5.8 30H63.8V28H5.8V30ZM63.8 30C67.4015 30 70.4472 31.2614 72.9929 33.8071L74.4071 32.3929C71.4862 29.472 67.9318 28 63.8 28V30ZM72.9929 33.8071C75.5423 36.3565 76.8 39.3703 76.8 42.9H78.8C78.8 38.8297 77.3244 35.3101 74.4071 32.3929L72.9929 33.8071ZM76.8 42.9V87.1H78.8V42.9H76.8ZM76.8 87.1C76.8 90.6297 75.5423 93.6435 72.9929 96.1929L74.4071 97.6071C77.3244 94.6899 78.8 91.1703 78.8 87.1H76.8ZM72.9929 96.1929C70.4472 98.7386 67.4015 100 63.8 100V102C67.9318 102 71.4862 100.528 74.4071 97.6071L72.9929 96.1929ZM63.8 100H5.8V102H63.8V100ZM22.5 88.7H61V86.7H22.5V88.7ZM61 88.7C61.9125 88.7 62.6577 88.6749 63.2213 88.6203C63.502 88.5932 63.7598 88.5567 63.9811 88.5056C64.1705 88.4619 64.4579 88.3816 64.7 88.2L63.5 86.6C63.6088 86.5184 63.6671 86.5256 63.5314 86.5569C63.4277 86.5808 63.2647 86.6068 63.0287 86.6296C62.5589 86.6751 61.8875 86.7 61 86.7V88.7ZM64.8071 88.1071C65.0527 87.8616 65.1692 87.5495 65.2328 87.3373C65.305 87.0968 65.3553 86.8197 65.3923 86.524C65.4665 85.9303 65.5 85.1494 65.5 84.2H63.5C63.5 85.1173 63.4668 85.803 63.4077 86.276C63.378 86.5137 63.345 86.6699 63.3172 86.7627C63.2808 86.8838 63.2807 86.8051 63.3929 86.6929L64.8071 88.1071ZM65.5 84.2V45.8H63.5V84.2H65.5ZM65.5 45.8C65.5 44.8517 65.4666 44.0768 65.3918 43.497C65.3547 43.2095 65.3032 42.9351 65.2262 42.6977C65.1632 42.5035 65.0267 42.145 64.7 41.9L63.5 43.5C63.3067 43.355 63.2868 43.2006 63.3238 43.3148C63.3468 43.3858 63.3787 43.5239 63.4082 43.753C63.4667 44.2065 63.5 44.8817 63.5 45.8H65.5ZM64.8071 41.9929C64.566 41.7518 64.2622 41.6344 64.0503 41.5692C63.8131 41.4962 63.5413 41.4454 63.253 41.4082C62.6742 41.3335 61.9168 41.3 61 41.3V43.3C61.8832 43.3 62.5425 43.3331 62.997 43.3918C63.2254 43.4212 63.3744 43.4538 63.4622 43.4808C63.5753 43.5156 63.5007 43.5149 63.3929 43.4071L64.8071 41.9929ZM61 41.3H22.5V43.3H61V41.3ZM22.5 41.3C21.5506 41.3 20.7697 41.3335 20.176 41.4077C19.8803 41.4447 19.6032 41.495 19.3627 41.5672C19.1505 41.6308 18.8384 41.7473 18.5929 41.9929L20.0071 43.4071C19.8949 43.5193 19.8162 43.5192 19.9373 43.4828C20.0301 43.455 20.1863 43.422 20.424 43.3923C20.897 43.3332 21.5827 43.3 22.5 43.3V41.3ZM18.5929 41.9929C18.3285 42.2572 18.2363 42.6089 18.1971 42.7699C18.1436 42.9897 18.1067 43.2488 18.0797 43.5287C18.025 44.093 18 44.8555 18 45.8H20C20 44.8778 20.025 44.1903 20.0704 43.7213C20.0933 43.4846 20.1189 43.3311 20.1404 43.2426C20.1762 43.0953 20.1715 43.2428 20.0071 43.4071L18.5929 41.9929ZM18 45.8V84.2H20V45.8H18ZM18 84.2C18 85.1453 18.0251 85.9144 18.0794 86.4933C18.1064 86.7815 18.1426 87.0448 18.1931 87.2695C18.2358 87.4593 18.3154 87.7539 18.5 88L20.1 86.8C20.1846 86.9128 20.1767 86.974 20.1444 86.8305C20.1199 86.7218 20.0936 86.5518 20.0706 86.3067C20.0249 85.8189 20 85.1214 20 84.2H18ZM18.7 88.2C18.9461 88.3846 19.2407 88.4642 19.4305 88.5069C19.6551 88.5574 19.9185 88.5936 20.2067 88.6206C20.7856 88.6749 21.5547 88.7 22.5 88.7V86.7C21.5786 86.7 20.8811 86.6751 20.3933 86.6294C20.1482 86.6064 19.9782 86.5801 19.8695 86.5556C19.726 86.5233 19.7872 86.5154 19.9 86.6L18.7 88.2ZM92.8984 96.9L93.6055 96.1929L93.6055 96.1929L92.8984 96.9ZM88.7984 29V28H87.7984V29H88.7984ZM101.998 29H102.998V28H101.998V29ZM102.298 87.4L101.498 88L101.584 88.1143L101.698 88.2L102.298 87.4ZM147.098 87.4L147.698 88.2L147.755 88.1574L147.806 88.1071L147.098 87.4ZM147.498 29V28H146.498V29H147.498ZM160.798 29H161.798V28H160.798V29ZM102.698 100C99.1687 100 96.155 98.7423 93.6055 96.1929L92.1913 97.6071C95.1086 100.524 98.6281 102 102.698 102V100ZM93.6055 96.1929C91.0561 93.6435 89.7984 90.6297 89.7984 87.1H87.7984C87.7984 91.1703 89.2741 94.6899 92.1913 97.6071L93.6055 96.1929ZM89.7984 87.1V29H87.7984V87.1H89.7984ZM88.7984 30H101.998V28H88.7984V30ZM100.998 29V84.2H102.998V29H100.998ZM100.998 84.2C100.998 85.1453 101.024 85.9144 101.078 86.4933C101.105 86.7815 101.141 87.0449 101.192 87.2695C101.234 87.4593 101.314 87.7539 101.498 88L103.098 86.8C103.183 86.9128 103.175 86.974 103.143 86.8305C103.118 86.7218 103.092 86.5518 103.069 86.3067C103.023 85.8189 102.998 85.1214 102.998 84.2H100.998ZM101.698 88.2C101.945 88.3846 102.239 88.4642 102.429 88.5069C102.654 88.5574 102.917 88.5936 103.205 88.6206C103.784 88.6749 104.553 88.7 105.498 88.7V86.7C104.577 86.7 103.88 86.6751 103.392 86.6294C103.147 86.6064 102.977 86.5801 102.868 86.5556C102.724 86.5233 102.786 86.5154 102.898 86.6L101.698 88.2ZM105.498 88.7H143.998V86.7H105.498V88.7ZM143.998 88.7C144.911 88.7 145.656 88.6749 146.22 88.6203C146.5 88.5932 146.758 88.5567 146.98 88.5056C147.169 88.4619 147.456 88.3816 147.698 88.2L146.498 86.6C146.607 86.5184 146.665 86.5256 146.53 86.5569C146.426 86.5808 146.263 86.6068 146.027 86.6296C145.557 86.6751 144.886 86.7 143.998 86.7V88.7ZM147.806 88.1071C148.051 87.8616 148.168 87.5495 148.231 87.3373C148.303 87.0968 148.354 86.8197 148.391 86.524C148.465 85.9303 148.498 85.1494 148.498 84.2H146.498C146.498 85.1173 146.465 85.803 146.406 86.276C146.376 86.5137 146.343 86.6699 146.316 86.7627C146.279 86.8838 146.279 86.8051 146.391 86.6929L147.806 88.1071ZM148.498 84.2V29H146.498V84.2H148.498ZM147.498 30H160.798V28H147.498V30ZM159.798 29V87.1H161.798V29H159.798ZM159.798 87.1C159.798 90.6297 158.541 93.6435 155.991 96.1929L157.406 97.6071C160.323 94.6899 161.798 91.1703 161.798 87.1H159.798ZM155.991 96.1929C153.442 98.7423 150.428 100 146.898 100V102C150.969 102 154.488 100.524 157.406 97.6071L155.991 96.1929ZM146.898 100H102.698V102H146.898V100ZM175.911 96.9L175.204 97.6071L175.204 97.6071L175.911 96.9ZM175.911 33.1L175.204 32.3929L175.204 32.3929L175.911 33.1ZM243.611 29H244.611V28H243.611V29ZM243.611 42.3V43.3H244.611V42.3H243.611ZM185.311 42.7L186.018 43.4071L186.018 43.4071L185.311 42.7ZM185.311 87.4L184.511 88L184.597 88.1143L184.711 88.2L185.311 87.4ZM243.611 87.7H244.611V86.7H243.611V87.7ZM243.611 101V102H244.611V101H243.611ZM185.711 100C182.181 100 179.167 98.7423 176.618 96.1929L175.204 97.6071C178.121 100.524 181.641 102 185.711 102V100ZM176.618 96.1929C174.069 93.6435 172.811 90.6297 172.811 87.1H170.811C170.811 91.1703 172.287 94.6899 175.204 97.6071L176.618 96.1929ZM172.811 87.1V42.9H170.811V87.1H172.811ZM172.811 42.9C172.811 39.3703 174.069 36.3565 176.618 33.8071L175.204 32.3929C172.287 35.3101 170.811 38.8297 170.811 42.9H172.811ZM176.618 33.8071C179.167 31.2577 182.181 30 185.711 30V28C181.641 28 178.121 29.4756 175.204 32.3929L176.618 33.8071ZM185.711 30H243.611V28H185.711V30ZM242.611 29V42.3H244.611V29H242.611ZM243.611 41.3H188.511V43.3H243.611V41.3ZM188.511 41.3C187.562 41.3 186.781 41.3335 186.187 41.4077C185.891 41.4447 185.614 41.495 185.374 41.5672C185.161 41.6308 184.849 41.7473 184.604 41.9929L186.018 43.4071C185.906 43.5193 185.827 43.5192 185.948 43.4828C186.041 43.455 186.197 43.422 186.435 43.3923C186.908 43.3332 187.594 43.3 188.511 43.3V41.3ZM184.604 41.9929C184.339 42.2572 184.247 42.6089 184.208 42.7699C184.155 42.9897 184.118 43.2488 184.091 43.5287C184.036 44.093 184.011 44.8555 184.011 45.8H186.011C186.011 44.8778 186.036 44.1903 186.081 43.7213C186.104 43.4846 186.13 43.3311 186.151 43.2426C186.187 43.0953 186.182 43.2428 186.018 43.4071L184.604 41.9929ZM184.011 45.8V84.2H186.011V45.8H184.011ZM184.011 84.2C184.011 85.1453 184.036 85.9144 184.09 86.4933C184.117 86.7815 184.154 87.0449 184.204 87.2695C184.247 87.4593 184.326 87.7539 184.511 88L186.111 86.8C186.196 86.9128 186.188 86.974 186.155 86.8305C186.131 86.7218 186.105 86.5518 186.082 86.3067C186.036 85.8189 186.011 85.1214 186.011 84.2H184.011ZM184.711 88.2C184.957 88.3846 185.252 88.4642 185.441 88.5069C185.666 88.5574 185.929 88.5936 186.218 88.6206C186.797 88.6749 187.566 88.7 188.511 88.7V86.7C187.59 86.7 186.892 86.6751 186.404 86.6294C186.159 86.6064 185.989 86.5801 185.88 86.5556C185.737 86.5233 185.798 86.5154 185.911 86.6L184.711 88.2ZM188.511 88.7H243.611V86.7H188.511V88.7ZM242.611 87.7V101H244.611V87.7H242.611ZM243.611 100H185.711V102H243.611V100ZM254.138 101H253.138V102H254.138V101ZM254.138 29V28H253.138V29H254.138ZM267.438 29H268.438V28H267.438V29ZM267.438 58.3H266.438V59.3H267.438V58.3ZM284.338 58.3V59.3H284.804L285.103 58.943L284.338 58.3ZM308.938 29V28H308.471L308.172 28.357L308.938 29ZM323.338 29H324.338V28H323.338V29ZM323.338 32.8L324.104 33.4425L324.338 33.1638V32.8H323.338ZM296.338 65L295.571 64.3575L295.031 65.0012L295.572 65.6439L296.338 65ZM323.438 97.2H324.438V96.8352L324.203 96.5561L323.438 97.2ZM323.438 101V102H324.438V101H323.438ZM308.938 101L308.171 101.642L308.47 102H308.938V101ZM284.338 71.6L285.104 70.9583L284.805 70.6H284.338V71.6ZM267.438 71.6V70.6H266.438V71.6H267.438ZM267.438 101V102H268.438V101H267.438ZM255.138 101V29H253.138V101H255.138ZM254.138 30H267.438V28H254.138V30ZM266.438 29V58.3H268.438V29H266.438ZM267.438 59.3H284.338V57.3H267.438V59.3ZM285.103 58.943L309.703 29.643L308.172 28.357L283.572 57.657L285.103 58.943ZM308.938 30H323.338V28H308.938V30ZM322.338 29V32.8H324.338V29H322.338ZM322.571 32.1575L295.571 64.3575L297.104 65.6425L324.104 33.4425L322.571 32.1575ZM295.572 65.6439L322.672 97.8439L324.203 96.5561L297.103 64.3561L295.572 65.6439ZM322.438 97.2V101H324.438V97.2H322.438ZM323.438 100H308.938V102H323.438V100ZM309.704 100.358L285.104 70.9583L283.571 72.2417L308.171 101.642L309.704 100.358ZM284.338 70.6H267.438V72.6H284.338V70.6ZM266.438 71.6V101H268.438V71.6H266.438ZM267.438 100H254.138V102H267.438V100Z" fill="black" fill-opacity="0.25"/>
</svg>
