<svg width="40" height="40" xmlns="http://www.w3.org/2000/svg">

 <g>
  <title>background</title>
  <rect fill="none" id="canvas_background" height="402" width="582" y="-1" x="-1"/>
 </g>
 <g>
  <title>Layer 1</title>
  <path id="svg_5" fill="#ffffff" d="m20,2c9.925,0 18,8.075 18,18s-8.075,18 -18,18c-9.925,0 -18,-8.075 -18,-18s8.075,-18 18,-18m0,-2c-11.045,0 -20,8.954 -20,20c0,11.047 8.955,20 20,20c11.047,0 20,-8.953 20,-20c0,-11.046 -8.953,-20 -20,-20l0,0z"/>
  <path id="svg_6" fill-rule="evenodd" fill="#ffffff" d="m14.371,9.793c1.207,-0.228 1.998,1.133 2.6,2.072c0.586,0.912 1.307,1.982 1.016,3.169c-0.162,0.666 -0.764,1.029 -1.219,1.422c-0.449,0.388 -1.133,0.744 -1.299,1.34c-0.271,0.967 0.322,1.982 0.689,2.56c0.834,1.306 1.842,2.483 3.129,3.534c0.623,0.51 1.488,1.191 2.355,1.016c1.295,-0.262 1.637,-1.859 3.047,-2.072c1.342,-0.203 2.25,0.77 3.008,1.422c0.73,0.631 1.908,1.439 1.828,2.52c-0.047,0.621 -0.545,1.006 -0.977,1.381c-0.439,0.383 -0.824,0.813 -1.258,1.096c-1.051,0.686 -2.34,1.022 -3.82,0.976c-1.451,-0.045 -2.607,-0.538 -3.656,-1.097c-2.051,-1.094 -3.672,-2.633 -5.199,-4.348c-1.502,-1.686 -2.889,-3.682 -3.656,-5.889c-0.957,-2.756 -0.451,-5.587 1.098,-7.353c0.262,-0.3 0.676,-0.613 1.055,-0.935c0.378,-0.323 0.728,-0.714 1.259,-0.814z" clip-rule="evenodd"/>
 </g>
</svg>