<svg width="139" height="139" viewBox="0 0 139 139" fill="none" xmlns="http://www.w3.org/2000/svg">
<path d="M57.2003 78.2C57.2003 78.2 71.2003 92 76.9003 93.1L88.6003 81.4C88.6003 81.4 93.2003 77 98.1003 81.5L117.2 100.6C117.2 100.6 120.3 106.3 116.7 109.8L107.4 119.1C107.4 119.1 91.0003 129.6 64.7003 112.8C64.7003 112.8 52.3003 106.3 40.8003 94.6" stroke="white" stroke-width="6" stroke-miterlimit="10"/>
<path d="M58.2001 79.2C58.2001 79.2 44.4001 65.2 43.2001 59.5L54.9001 47.8C54.9001 47.8 59.3001 43.2 54.8001 38.3L35.6001 19.2C35.6001 19.2 29.9001 16.1 26.4001 19.7L17.1001 29C17.1001 29 6.60012 45.4 23.5001 71.7C23.5001 71.7 30.0001 84.1 41.8001 95.6" stroke="white" stroke-width="6" stroke-miterlimit="10"/>
</svg>